<svg
              version="1.1"
              xmlns="http://www.w3.org/2000/svg"
              x="0"
              y="0"
              width="35"
              height="35"
              viewBox="0 0 1000 1000"
              enableBackground="new 0 0 1000 1000"
            >
              <g>
                <path
                  className="mode-path"
                  fill="#3976f6"
                  stroke="#3976f6"
                  stroke-width="20"
                  d="M990,500c0-66.1-13-130.3-38.5-190.7c-24.7-58.4-60-110.8-105-155.7c-45-45-97.4-80.3-155.7-105C630.3,23,566.1,10,500,10c-66.1,0-130.3,13-190.7,38.5c-58.4,24.7-110.8,60-155.7,105c-45,45-80.3,97.4-105,155.7C23,369.7,10,433.9,10,500c0,66.1,13,130.3,38.5,190.7c24.7,58.4,60,110.8,105,155.7c45,45,97.4,80.3,155.7,105C369.7,977,433.9,990,500,990c66.1,0,130.3-13,190.7-38.5c58.4-24.7,110.8-60,155.7-105c45-45,80.3-97.4,105-155.7C977,630.3,990,566.1,990,500z M805.7,805.7C724.1,887.4,615.5,932.4,500,932.4c-115.5,0-224.1-45-305.7-126.6C112.6,724.1,67.6,615.5,67.6,500c0-115.5,45-224.1,126.6-305.7C275.9,112.6,384.5,67.6,500,67.6c115.5,0,224.1,45,305.7,126.6c81.7,81.7,126.6,190.2,126.6,305.7C932.4,615.5,887.4,724.1,805.7,805.7z"
                />
                <path
                  className="mode-path"
                  fill="#3976f6"
                  stroke="#3976f6"
                  stroke-width="20"
                  d="M532.8,192.4C532.8,192.4,532.7,192.4,532.8,192.4c-0.2-0.4-0.4-0.8-0.6-1.1c0-0.1-0.1-0.2-0.1-0.3c-0.2-0.3-0.4-0.7-0.6-1c0-0.1-0.1-0.1-0.1-0.2c-0.2-0.4-0.4-0.7-0.7-1c0-0.1-0.1-0.1-0.1-0.2c-0.2-0.3-0.5-0.7-0.7-1c0,0-0.1-0.1-0.1-0.1c-0.2-0.3-0.5-0.6-0.7-0.9c0-0.1-0.1-0.1-0.1-0.2c-0.2-0.2-0.3-0.4-0.5-0.6c-1.4-1.6-3-3-4.7-4.2l0,0c-0.4-0.3-0.8-0.5-1.2-0.8c0,0-0.1,0-0.1-0.1c-0.4-0.2-0.7-0.5-1.1-0.7c-0.1,0-0.1-0.1-0.2-0.1c-0.3-0.2-0.7-0.4-1-0.6c0,0-0.1,0-0.1,0c-0.1-0.1-0.2-0.1-0.3-0.1c-0.3-0.1-0.6-0.3-0.9-0.4c-0.2-0.1-0.4-0.2-0.6-0.3c-0.2-0.1-0.5-0.2-0.7-0.3c-0.3-0.1-0.5-0.2-0.8-0.3c-0.2-0.1-0.3-0.1-0.5-0.2c-0.3-0.1-0.6-0.2-0.9-0.3c-0.1,0-0.2-0.1-0.4-0.1c-0.3-0.1-0.7-0.2-1-0.3c-0.1,0-0.2,0-0.3-0.1c-0.4-0.1-0.7-0.2-1.1-0.2c-0.1,0-0.2,0-0.3,0c-0.4,0-0.7-0.1-1.1-0.2c-0.1,0-0.2,0-0.3,0.1c-0.4,0.1-0.7,0.1-1.1,0.2c-0.1,0-0.2,0-0.3,0.1c-0.3,0.1-0.7,0.2-1,0.3c-0.1,0-0.3,0.1-0.4,0.1c-0.3,0.1-0.6,0.2-0.9,0.3c-0.2,0.1-0.3,0.1-0.5,0.2c-0.3,0.1-0.5,0.2-0.8,0.3c-0.2,0.1-0.4,0.2-0.7,0.3c-0.2,0.1-0.4,0.2-0.6,0.2c-0.3,0.1-0.6,0.2-0.8,0.4c-0.1,0.1-0.2,0.1-0.3,0.1c0,0-0.1,0-0.1,0.1c-0.3,0.2-0.7,0.3-1,0.5c-0.1,0.1-0.2,0.1-0.3,0.2c-0.4,0.2-0.7,0.4-1,0.6c-0.1,0-0.1,0.1-0.2,0.1c-0.4,0.2-0.7,0.5-1.1,0.7c0,0-0.1,0-0.1,0.1c-0.4,0.3-0.8,0.5-1.1,0.8c0,0,0,0,0,0c-1,0.8-2,1.6-2.9,2.5c-0.8,0.8-1.5,1.6-2.2,2.4c0,0,0,0.1-0.1,0.1c-0.3,0.3-0.5,0.7-0.8,1.1c0,0-0.1,0.1-0.1,0.1c-0.2,0.3-0.5,0.7-0.7,1c0,0.1-0.1,0.1-0.1,0.2c-0.2,0.3-0.4,0.7-0.6,1c-0.1,0.1-0.1,0.2-0.2,0.3c-0.2,0.3-0.3,0.6-0.5,0.9c0,0,0,0.1-0.1,0.1L209.9,722.1c-7.2,14.2-1.6,31.5,12.5,38.8c4.2,2.1,8.7,3.2,13.1,3.2c10.5,0,20.6-5.7,25.7-15.7l84.4-165.1h309.8l78.5,164.4c4.9,10.4,15.3,16.4,26,16.4c4.2,0,8.4-0.9,12.4-2.8c14.4-6.9,20.5-24.1,13.6-38.4L532.8,192.4z M375.1,525.6l130.7-255.7l122,255.7H375.1z"
                />
              </g>
            </svg>